Coordinates
version=1
nRows=13
nColumns=36
inDegrees=yes

Units are S.I. units (second, meters, Newtons, ...)
If the header above contains a line with 'inDegrees', this indicates whether rotational values are in degrees (yes) or radians (no).

endheader
time	pelvis_tilt	pelvis_list	pelvis_rotation	pelvis_tx	pelvis_ty	pelvis_tz	hip_flexion_r	hip_adduction_r	hip_rotation_r	knee_angle_r	knee_angle_r_beta	ankle_angle_r	subtalar_angle_r	mtp_angle_r	hip_flexion_l	hip_adduction_l	hip_rotation_l	knee_angle_l	knee_angle_l_beta	ankle_angle_l	subtalar_angle_l	mtp_angle_l	lumbar_extension	lumbar_bending	lumbar_rotation	arm_flex_r	arm_add_r	arm_rot_r	elbow_flex_r	pro_sup_r	arm_flex_l	arm_add_l	arm_rot_l	elbow_flex_l	pro_sup_l
      2.00000000	    -37.39020955	     -7.25991072	      5.16797312	      0.28179976	      0.62008927	      0.15258446	    100.96804617	    -16.16909569	     -1.70629128	     98.51036248	      1.71933017	     42.41648325	      1.56649315	     -7.49999987	    104.87531635	    -17.42046807	      3.43545554	     96.16936901	      1.67847213	     48.32280257	      5.79719819	     -7.49999987	    -23.40052148	      3.07151749	     10.94837852	     67.58578439	    -19.87234337	     72.76992110	    124.04347663	     70.25997586	     76.63761953	      1.22248094	     79.18235405	    111.95963120	     85.82184321
      2.01666670	    -37.67403628	     -7.06756150	      5.19473298	      0.28941566	      0.61928698	      0.15658719	    102.39610169	    -16.49522278	     -1.29018471	     99.46132248	      1.73592756	     42.22953576	      1.56844743	     -7.49999987	    106.12751762	    -17.19342328	      3.41957288	     97.14023709	      1.69541697	     48.18452504	      5.40210537	     -7.49999987	    -23.36792623	      3.10499774	     10.63784296	     67.31180937	    -19.21362858	     72.62195748	    124.07299901	     70.07915388	     77.60603279	      0.65343216	     79.57190188	    112.56333637	     85.49687430
      2.03333330	    -37.84296799	     -6.93154197	      5.16442301	      0.28202027	      0.61158958	      0.15351577	    103.66733498	    -16.76585628	     -0.94856899	    100.31495684	      1.75082629	     41.96012333	      1.57997667	     -7.49999987	    107.25506010	    -17.02117058	      3.44163782	     98.02527680	      1.71086383	     48.04427447	      5.13021484	     -7.49999987	    -23.28793437	      3.21714655	     10.43544881	     67.80036257	    -19.27162379	     73.36500638	    125.06556270	     70.05960044	     78.25220364	      0.78774147	     79.52693580	    113.19170837	     85.47522777
      2.05000000	    -37.96510851	     -6.69900391	      5.16536758	      0.27548782	      0.60718753	      0.15131663	    104.85268984	    -17.03672403	     -0.51103413	    101.02244882	      1.76317435	     41.61023974	      1.54867319	     -7.49999987	    108.17808703	    -16.77332096	      3.33181026	     98.72630662	      1.72309911	     47.84078292	      4.71787117	     -7.49999987	    -23.15473065	      3.25028651	     10.31922752	     69.10400265	    -19.57371338	     73.85645660	    126.06535804	     69.95095739	     78.96239715	      1.18329305	     78.57899065	    113.77195400	     85.37136683
      2.06666670	    -37.87550078	     -6.65822140	      5.11407045	      0.28985009	      0.60973562	      0.15753904	    105.26342840	    -17.10367774	     -0.37950455	    101.40920283	      1.76992448	     41.44511682	      1.56167501	     -7.49999987	    108.56690440	    -16.61448306	      3.45532719	     99.15111831	      1.73051347	     47.84896502	      4.56188435	     -7.49999987	    -23.04738269	      3.26073177	     10.26222202	     68.38020866	    -18.24473308	     74.95231560	    125.04280746	     69.31690657	     77.50787251	      0.12505668	     78.42806463	    114.73438672	     83.81414235
      2.08333330	    -37.74353855	     -6.57948054	      5.10100253	      0.28255316	      0.61106205	      0.15425437	    105.38612550	    -17.14172657	     -0.25160873	    101.51985451	      1.77185572	     41.22865392	      1.53105889	     -7.49999987	    108.64878316	    -16.49367060	      3.42917626	     99.33012207	      1.73363768	     47.84409154	      4.48538782	     -7.49999987	    -22.99688644	      3.23719702	     10.22684088	     68.79123874	    -18.59376986	     74.88076275	    124.85338460	     69.31998987	     77.55771947	      0.25833260	     77.79550097	    114.65414311	     83.83001604
      2.10000000	    -37.34434777	     -6.44877631	      5.07554646	      0.29575672	      0.61925807	      0.15330614	    104.55805474	    -17.09911286	     -0.22380501	    101.06703970	      1.76395261	     41.14948116	      1.43562247	     -7.49999987	    107.78483183	    -16.37755030	      3.28460113	     99.03772849	      1.72853445	     48.00953176	      4.49681022	     -7.49999987	    -23.16750724	      3.20048709	     10.31546572	     67.62508656	    -18.10583072	     75.57371052	    124.90400657	     69.20731484	     75.82483150	     -0.07343551	     77.58517251	    114.38888921	     83.18712556
      2.11666670	    -37.06984174	     -6.49188307	      5.07810637	      0.30269809	      0.62736072	      0.15636032	    103.32446923	    -16.95463772	     -0.40033037	    100.25553247	      1.74978913	     41.08073800	      1.27925697	     -7.49999987	    106.64104588	    -16.23564124	      3.27026114	     98.34903154	      1.71651442	     48.18267668	      4.53351294	     -7.49999987	    -22.87406083	      3.06344915	     10.52033694	     66.07650125	    -17.63841289	     76.81624117	    125.33426861	     69.37352810	     73.91023416	      0.19923574	     78.05772816	    115.04123852	     83.35504051
      2.13333330	    -36.80056560	     -6.63524837	      5.00294361	      0.30924477	      0.63188255	      0.15877484	    101.78612316	    -16.63083429	     -0.72335955	     99.20923349	      1.73152777	     41.12256451	      1.07830075	     -7.49999987	    105.32674002	    -16.29702243	      3.30870302	     97.50319375	      1.70175176	     48.43205329	      4.84919111	     -7.49999987	    -22.47625112	      3.09616226	     10.66556043	     64.82039023	    -17.14831197	     78.01351189	    126.11548809	     69.64615864	     72.36569442	      0.01156114	     78.48140051	    116.16026270	     83.65547225
      2.15000000	    -36.33446555	     -7.07398175	      4.95015870	      0.30980184	      0.64534296	      0.16546612	     99.55895901	    -16.13036800	     -1.48050776	     97.71065328	      1.70537261	     41.10726160	      0.82099045	     -7.49999987	    103.71213730	    -16.43681382	      3.56389454	     96.30423594	      1.68082600	     48.61744823	      5.26323225	     -7.49999987	    -22.79870563	      3.50358299	     10.29762668	     64.34777037	    -16.03646422	     77.03967022	    124.41856572	     69.88885981	     72.08370926	     -1.61528976	     78.89651621	    115.91855529	     82.61600635
      2.16666670	    -36.11280988	     -7.18074782	      4.90071001	      0.30283796	      0.64476520	      0.16799971	     98.14911417	    -15.63893217	     -1.81290328	     96.55275299	      1.68516344	     41.28170586	      0.74107842	     -7.49999987	    102.47935283	    -16.75651122	      3.39453087	     95.24783615	      1.66238835	     48.56793347	      5.57344429	     -7.49999987	    -22.11845965	      3.34227903	     10.46595298	     65.02776944	    -15.10996453	     76.61114176	    125.84647504	     69.97783555	     73.08247772	     -1.62380311	     78.17994789	    117.37105936	     82.23605136
      2.18333330	    -35.41720398	     -7.45915884	      4.85022686	      0.30954200	      0.66007520	      0.16462077	     95.82393205	    -15.14143422	     -2.58897340	     94.93658832	      1.65695605	     41.27243060	      0.48899914	     -7.49999987	    100.59557285	    -17.06557204	      3.41762951	     93.87237928	      1.63838210	     48.56359131	      5.87908240	     -7.49999987	    -22.13632422	      3.54637111	     10.43775014	     64.53505704	    -15.27054832	     76.29301174	    125.92923017	     75.24159608	     72.99286570	     -1.32011780	     77.74257344	    117.56019282	     88.23150194
      2.20000000	    -34.88898933	     -7.52837720	      4.89062880	      0.30205748	      0.66691640	      0.16030318	     94.00994538	    -14.89260947	     -3.09763058	     93.42187605	      1.63051933	     41.13685098	      0.42034744	     -7.49999987	     98.95106525	    -17.19817242	      3.13658457	     92.55643104	      1.61541447	     48.43501163	      6.08768083	     -7.49999987	    -21.96696603	      3.79339151	     10.31563504	     65.68930219	    -16.05799206	     76.10144540	    126.81235483	     75.23334081	     73.22206666	     -0.84018901	     76.85498177	    117.16558096	     88.28382121
